PathFileType	4	(X/Y/Z)	62_2_81_p0_0-368_filt_butterworth.trc
DataRate	CameraRate	NumFrames	NumMarkers	Units	OrigDataRate	OrigDataStartFrame	OrigNumFrames
54.0	54.0	5	27	m	54.0	0	368
Frame#	Time	RHip			RKnee			RAnkle			RBigToe			RSmallToe			RHeel			LHip			LKnee			LAnkle			LBigToe			LSmallToe			LHeel			Neck			Head			Nose			RShoulder			RElbow			RWrist			RThumb			RIndex			RPinky			LShoulder			LElbow			LWrist			LThumb			LIndex			LPinky			
		X1	Y1	Z1	X2	Y2	Z2	X3	Y3	Z3	X4	Y4	Z4	X5	Y5	Z5	X6	Y6	Z6	X7	Y7	Z7	X8	Y8	Z8	X9	Y9	Z9	X10	Y10	Z10	X11	Y11	Z11	X12	Y12	Z12	X13	Y13	Z13	X14	Y14	Z14	X15	Y15	Z15	X16	Y16	Z16	X17	Y17	Z17	X18	Y18	Z18	X19	Y19	Z19	X20	Y20	Z20	X21	Y21	Z21	X22	Y22	Z22	X23	Y23	Z23	X24	Y24	Z24	X25	Y25	Z25	X26	Y26	Z26	X27	Y27	Z27	
0	0.0	0.34015057551229216	0.5225705533406058	0.24837169951240698	0.3532565201677584	0.7877888693459593	0.5660357408338389	0.33381115431635666	1.0154932839363935	0.8563212175354202	0.30848279227716635	0.9346442311293162	0.953833409741746	0.35456255397947556	0.915931460313156	0.9415995479396321	0.3263011424538497	1.1293713371541716	0.8542908449469513	0.12058910763521305	0.5774519673496659	0.21451764126113343	0.13344735744430114	0.8383733552103397	0.5467616165282314	0.14177000669474446	1.0783011550141888	0.8282404047169533	0.10895154514617408	0.9099541107900596	0.9258238227709827	0.07469669266376856	0.9838382015506488	0.8946692882211645	0.16307996279916012	1.1308607777440423	0.847621053673437	0.22111659393953048	0.17941854168387295	-0.2506638454107132	0.2155251475608526	-0.006004615493373932	-0.4237156616465961	0.20567502213912425	0.007771146057097546	-0.28086479067022824	0.37340485668460377	0.17567311212810094	-0.13604847815175553	0.42323587393461143	0.34067562567536025	0.0768951334269232	0.2725381480845284	0.35630820088251086	0.28600746493059326	0.18324304782539058	0.40850348281138343	0.3492337271290007	0.18284280710018888	0.42887352217609037	0.3503610139141845	0.1837168871539705	0.42161250530469024	0.34158721276500925	0.06810536476413076	0.24047818432063078	-0.18238910745030518	0.03971460740549664	0.40642947990240735	0.05050511406219857	0.12214823915707534	0.38786260550412605	0.26235631383119296	0.192430266966684	0.3619257701743063	0.3179995311122818	0.20323647341143414	0.4180468658428134	0.3479871894088209	0.18612847547167488	0.43856267758188433	0.3459431444425092
1	0.0185185185185185	0.3400056645877761	0.5339468188222126	0.25694361641588304	0.35318610299079506	0.7933727601504672	0.5758850867714489	0.33454192891317663	1.0177482466916183	0.857505465122242	0.3080088806566457	0.9352366168517448	0.9501071550604473	0.35541785209997506	0.9172548964224403	0.9408333203341784	0.3262771611175873	1.1246418882565323	0.8556663603365157	0.12065831560565243	0.5806595270696515	0.22045185022696803	0.13177999531499723	0.840329648824965	0.5519171782420171	0.14277154147179527	1.081727047675133	0.8313122179664441	0.10918901553135585	0.9100058642738149	0.9256032913892427	0.07457331447519681	0.9837856428259028	0.8946794115394299	0.1652156735253929	1.132522777813063	0.8485452671009731	0.22101322918938338	0.17924063550188202	-0.2506353605263786	0.21584007248380488	-0.014208204628587896	-0.42050562233534644	0.20375789416182388	0.004724922974840697	-0.27864558335812634	0.37157283280751296	0.1751826219196936	-0.1356804548611456	0.4232035067199627	0.3435582461779603	0.07906285870607441	0.2724670604411319	0.3612117298200293	0.28617996039641663	0.18708900194229056	0.4147750213629996	0.34458097978596236	0.18560057329631977	0.43639224537051763	0.3463454478018796	0.19169420335980025	0.43713545602298026	0.3391083713673323	0.06808377118973133	0.24045055805939464	-0.18230733427078444	0.037863157059213164	0.40361397503505586	0.047739052668358706	0.12329248811254229	0.38749132490122007	0.2615387101521484	0.1948689621087965	0.3707755189789902	0.3152681179745539	0.20423131530742675	0.41284420903755215	0.34593061315827456	0.18873893701526456	0.4363913441446818	0.34328535271785365
2	0.037037037037037	0.34006477222971815	0.5436668259491979	0.26203461337583656	0.35338836870789925	0.7973964846097106	0.5828899120544927	0.33667368435336464	1.0229080355441615	0.8584191471295967	0.3067197678638084	0.9334861181949886	0.9482555220011676	0.3557849593828292	0.9178255869670814	0.9405853407154445	0.3278764698262395	1.1256711767333591	0.8567200880630029	0.12066376086367069	0.5830355028895281	0.2246500168270985	0.13049531947255197	0.8420385703745641	0.5561833772768774	0.14336260613543142	1.0839458592559184	0.8337630076234867	0.11023706233404808	0.9101946356553438	0.9257351930006188	0.07452589032469417	0.9840391290830572	0.8955176679038623	0.16712853770563585	1.1336815348960738	0.8489266857542992	0.22098346158480742	0.17910612679674892	-0.250614268091662	0.21580438750658312	-0.016638709143214483	-0.42024092915840544	0.20133264226947606	0.0014950878519819754	-0.2767315241727315	0.36976023324106355	0.17475653168893576	-0.13535616426915636	0.42330708146589924	0.3482266488880062	0.07906990906208179	0.27227022412062535	0.36737592807290387	0.2846025981084379	0.19015356242988105	0.4181257661584778	0.34218959734592913	0.18717970323260447	0.4406147292486945	0.3441900882828357	0.1957271829763992	0.44585796710416203	0.3376431813557689	0.06805546983614262	0.24045665491490992	-0.18227374559894194	0.03602388906111785	0.4022415580829454	0.046595233369779054	0.12307706614231814	0.387361018423781	0.26126031508491937	0.19650851371037875	0.37651602505089077	0.31290168407565316	0.20609668381231772	0.41084048945171614	0.34463061041040405	0.1910924613319254	0.4356756528516613	0.3420709735429809
3	0.0555555555555555	0.3403178367030608	0.5495872230368699	0.26375123050054794	0.3536535991175799	0.7993290421616703	0.5864251358357855	0.33965404758428297	1.0296080107105994	0.8587389889150499	0.3053493113788182	0.9308790005934711	0.9481303966307266	0.3556590456019749	0.9176529244938537	0.9408439327557861	0.33054168552994845	1.1313060503704708	0.8576754766539467	0.12059538136020247	0.5840316263915677	0.22629036501841002	0.1294520485636944	0.843018326781447	0.558383865404217	0.1435472624084682	1.0848439036272728	0.8353895844370673	0.11186029357833527	0.9105553315103204	0.9264915069967579	0.07489262514992548	0.9845489342533353	0.8969620144426845	0.1682486580400658	1.134228526471676	0.8487469823205442	0.2210660861433419	0.17900768482604149	-0.25060562516301726	0.2154441638373074	-0.013712767729625734	-0.42263661530186014	0.19874363470767348	-0.0010369576614504248	-0.2760258996093834	0.36853077069021456	0.17452601557110675	-0.13513129846006228	0.4235278129674595	0.35398783328696926	0.07733960292183042	0.27177769648329103	0.3758135500816519	0.281683067380711	0.19189171100451569	0.4190818544929544	0.34205140472555895	0.18757429850247243	0.4415148595334032	0.3438444503691716	0.19549966576504593	0.4473896114618091	0.33736968462650796	0.06801968484667516	0.24049805608862124	-0.1822983400469329	0.034761503833641266	0.4019767456885033	0.046802029676795795	0.1222339794762066	0.38777511421531985	0.26164526737882055	0.19787224856627006	0.3797901401862457	0.31196032972958937	0.20864664958673015	0.41286419871015667	0.3442483132947708	0.19272974684906574	0.4379036391446681	0.3424150779742375
4	0.074074074074074	0.3405536792861118	0.5514124606219647	0.2640187441414372	0.3534216857517785	0.799664762608158	0.5874127910265342	0.3417924482585808	1.034183508840121	0.858606817030133	0.3047359265740449	0.9295965971683817	0.9484955404748542	0.3553822929468458	0.9172213192876795	0.9411700318096247	0.3327274528231332	1.1368954948768615	0.8590167158932931	0.12051214647437487	0.584094976681763	0.22595228191911423	0.12869742288563854	0.843135282120398	0.5584311730418295	0.14358121925059397	1.0850004539745908	0.836198080566702	0.11310853924085401	0.911013179532229	0.9278126856510468	0.07601661422490498	0.9850484024558204	0.898109746593385	0.16854216544235007	1.1346235171995551	0.8486672974095131	0.2211403339527942	0.1789396049541644	-0.25061413270220473	0.21499661907814274	-0.009262978418225588	-0.42568184451173563	0.1967351280021972	-0.0022270753643978745	-0.2766299547097781	0.36814176737341886	0.17446201100053457	-0.13506199420541534	0.42373390712895814	0.3584340189331649	0.07591003466516698	0.27096446869439295	0.3863345479638839	0.27897138417331846	0.19238536201504247	0.41978820894759916	0.3428637643064001	0.18746075035420995	0.4411594979149107	0.3441508469381352	0.19368146789626556	0.44683760053086163	0.3373290774467433	0.06797318444096503	0.24055568221127666	-0.1823576675981073	0.03436424426434112	0.4018966415173145	0.047378030515383	0.1219013596705983	0.38841224677832864	0.26224255474851105	0.19848892697056872	0.3819608764684149	0.31370809625208285	0.20999720586064555	0.41643032434718336	0.34496895152091	0.1930758740687633	0.44348780345741334	0.34323688863963514
